<svg xmlns="http://www.w3.org/2000/svg" viewBox="0 0 1725.53 447.66"><defs><style>.cls-1{fill:#d5e3ec;}.cls-2{opacity:0.1;}.cls-3{fill:#0b275b;}.cls-4{fill:#0cc9bf;}.cls-5{opacity:0.3;}.cls-6{fill:#f7b67a;}.cls-7{fill:#eca571;}.cls-8{fill:#493b32;}.cls-9{fill:#fff;}.cls-10{fill:#3b9fbb;}.cls-11{fill:#d3d9da;}.cls-12{fill:#236c7e;}.cls-13{fill:#0e3148;}.cls-14{fill:#ebf4eb;}.cls-15{fill:#dae1d9;}.cls-16{fill:#d73a54;}.cls-17{fill:#200e0a;}.cls-18{opacity:0.5;}.cls-19{fill:#e0e4e3;}.cls-20{fill:#0a131f;}.cls-21{fill:#414140;}.cls-22{fill:#e9e9e9;}.cls-23{fill:#c1c1c1;}.cls-24{fill:#b0b0b0;}.cls-25{fill:#878786;}.cls-26{fill:#328ea7;}.cls-27{fill:#6e5b51;}.cls-28{fill:#55473e;}</style></defs><g id="Vrstva_2"><g id="Vrstva_1-2"><rect class="cls-1" x="64.58" y="177.06" width="394.7" height="234.66"/><g class="cls-2"><polygon class="cls-3" points="457.55 410.23 175.35 410.23 457.55 175.57 457.55 410.23"/></g><path class="cls-4" d="M644.38,262.75c-27.09,0-49.14-20.28-49.14-49s22-48.87,49.14-48.87,48.87,20.14,48.87,48.87S671.47,262.75,644.38,262.75Zm0-21.23c15.25,0,25.18-11,25.18-27.77,0-17-9.93-27.77-25.18-27.77-15.52,0-25.32,10.75-25.32,27.77C619.06,230.49,628.86,241.52,644.38,241.52Z"/><path class="cls-4" d="M790.29,166.24V261.8H767l-38.93-58.94V261.8H704.81V166.24h23.28L767,225.45V166.24Z"/><path class="cls-4" d="M830.14,166.24v77.59h30.49v18H806.86V166.24Z"/><path class="cls-4" d="M868.24,166.24h23.28V261.8H868.24Z"/><path class="cls-4" d="M993.33,166.24V261.8H970.05l-38.93-58.94V261.8H907.84V166.24h23.28l38.93,59.21V166.24Z"/><path class="cls-4" d="M1068.43,184.89h-35.26v19.33h31.18v18h-31.18v21h35.26V261.8H1009.9V166.24h58.53Z"/><path class="cls-3" d="M595.84,297.11h115.3V326.2H671.65v120H635.34v-120h-39.5Z"/><path class="cls-3" d="M814.83,326.2h-55v30.15h48.63v28H759.83v32.7h55v29.09H723.52V297.11h91.31Z"/><path class="cls-3" d="M888.85,447.66c-32.06,0-57.12-15.92-58.18-46.08h38.65c1.06,11.47,8.28,17,18.47,17,10.62,0,17.41-5.31,17.41-14,0-27.61-74.53-12.74-74.1-65.62,0-28.24,23.14-43.95,54.35-43.95,32.49,0,54.36,16.14,55.85,44.59H902c-.64-9.56-7.43-15.29-17.2-15.5-8.71-.21-15.29,4.25-15.29,13.59,0,25.9,73.68,14.23,73.68,64.13C943.21,426.85,923.68,447.66,888.85,447.66Z"/><path class="cls-3" d="M951.9,297.11h115.3V326.2h-39.5v120H991.39v-120H951.9Z"/><path class="cls-3" d="M1147.27,447.66c-42.25,0-76.65-31.64-76.65-76.44S1105,295,1147.27,295c42.47,0,76.23,31.42,76.23,76.23S1189.53,447.66,1147.27,447.66Zm0-33.12c23.78,0,39.28-17.2,39.28-43.32,0-26.54-15.5-43.32-39.28-43.32-24.21,0-39.49,16.78-39.49,43.32C1107.78,397.34,1123.06,414.54,1147.27,414.54Z"/><path class="cls-3" d="M1334.71,297.11h38.43l-52.87,149.06h-45.44L1222,297.11h38.65l37,112.54Z"/><path class="cls-3" d="M1464.13,419.84H1408.5l-8.92,26.33h-38l53.93-149.06h42l53.93,149.06h-38.43Zm-3-180.91v28.24L1410,288.62V263.56Zm-24.85,98.31-18.26,54.58h36.74Z"/><path class="cls-3" d="M1656.47,297.11V446.17h-36.31l-60.73-91.94v91.94h-36.31V297.11h36.31l60.73,92.37V297.11Z"/><path class="cls-3" d="M1725.53,238.93v28.24l-51.18,21.45V263.56Zm-42.89,58.18H1719V446.17h-36.31Z"/><path class="cls-3" d="M445.89,418.4H79.05a22.05,22.05,0,0,1-22-22V188.16a22.05,22.05,0,0,1,22-22H445.89a22,22,0,0,1,22,22V396.37A22,22,0,0,1,445.89,418.4ZM79.05,179.09A9.08,9.08,0,0,0,70,188.16V396.37a9.08,9.08,0,0,0,9.07,9.07H445.89a9.08,9.08,0,0,0,9.07-9.07V188.16a9.08,9.08,0,0,0-9.07-9.07Z"/><path class="cls-3" d="M0,437.52v-21H514.94v21a9.49,9.49,0,0,1-9.5,9.49H9.5A9.49,9.49,0,0,1,0,437.52Z"/><g class="cls-5"><path class="cls-3" d="M468.74,208.8a14.71,14.71,0,0,0-2.49-1.3h0a60.19,60.19,0,0,0-8.19-3.36c-4.52-5.77-8.24-14.41-2.49-24.36,1.52-2.64,3-5.45,4.45-8.33-12-.17-23.95-.29-35.92-.62a35.29,35.29,0,0,0-.36,5.48c.32,11-6.28,21.54-9.85,26.41q-2.67.71-5.26,1.66c-8.77,1-11.63,1.7-13.31,10.39-2.12,11,4.27,16.31,4.27,16.31s-9.58,3.23-10,12.59,7.71,14.83,7.71,14.83-7.2,5.67-6.67,13.34,6.65,12.34,6.65,12.34-8,5.4.27,12.54A167.63,167.63,0,0,0,379,310.59c-9.15,46.18-39.52,57.3-101.56,24.71-.55-.6-1.09-1.17-1.62-1.73l5.06-1.86L262,319.9l1.42-.82L253,311.31l-5.28.69a33.2,33.2,0,0,1-1.14-7.79c21.29-2.7,34.7-11.4,49.16-24.13.4-1.88.77-3.81,1.1-5.77a83.94,83.94,0,0,0,20.38-35.74,118.28,118.28,0,0,0,3.29-16.66,18.54,18.54,0,0,0,7.52-3.49c12.06-8.74,22.1-36.16,11-49.66-.05-.06-.09-.12-.14-.17-30.35,0-60.7.87-91.07,1.28-25.65.35-51.21.88-76.8,2.72a284.44,284.44,0,0,1-38.4-.19c-4-.25-8-.53-12-.79-7.82,14.19,1.67,38.65,12.94,46.81a20.12,20.12,0,0,0,6.45,3.26c.41,2.37.88,4.72,1.43,7,4.91,20.57,11.33,36.21,20.75,47.67a16.86,16.86,0,0,0,1.61,4.87c4.08,6.27,19.23,21.22,57.4,23.53a58.18,58.18,0,0,1,.5,7.09l-28.14,19,4.13,3.3-.64,1.22L184.7,347.13c-9.36,6.43-29.7,35.51-32.26,50.79-.39,2.32-.72,4.84-1,7.52H316.79A83.21,83.21,0,0,0,315,393.76c-.25-1-.55-2-.9-3a16,16,0,0,0,.73-6.22,238.2,238.2,0,0,0,30,9.17c15.82,4.58,33.75,7.73,52.37,7.14h0c.7,0,1.4-.07,2.09-.12l.41,0c22.86-2,41.66-20.44,55.28-39.62,8-8.83,13.58-19.73,17.31-29.14,4.21-8.35,6.46-14,6.46-14s-.71.31-2,.84c1.4-5,2-8.13,2-8.13s-4.45-3.7-11.1-8.29c9.35-5.81,14.2-20.55,16.89-27.8,6-16.12,1.24-40.43-2.4-50.36C478.53,214.38,468.74,208.8,468.74,208.8ZM309.56,380.13l1.41.67v0l-1.23-.33Zm1.36,2.8.33.13c0,.23,0,.46.05.68C311.18,383.47,311.05,383.2,310.92,382.93Z"/></g><path class="cls-6" d="M171.37,88.11s-22.62,66.16-11.18,119.28c11.63,53.95,31.68,77.34,80.21,80.93,58.86,2.09,86.33-32.31,95.6-68,9.37-36.09,6.58-121.81-9.65-154.81S184.56,29.9,171.37,88.11Z"/><path class="cls-6" d="M331.56,140.87s13-15.75,26.27,2.18c11.08,14.95,1,45.3-11,55s-17.91-.88-17.91-.88Z"/><path class="cls-6" d="M167.56,140.87s-13-15.75-26.28,2.18c-11.07,14.95-1,45.3,11,55s17.91-.88,17.91-.88Z"/><path class="cls-7" d="M238.17,284.55a67.42,67.42,0,0,1,0,34.86h36.32s-12.64-17.08-8.2-35.11-5.5-11.81-5.5-11.81Z"/><path class="cls-7" d="M242,284.81c-5.64-3.14-11.06-6.66-16.43-10.23a84.66,84.66,0,0,1-11.87-9,76.76,76.76,0,0,1-15.88-22.45c-8.27-17.21-28.36-59.39-26-95.87,1.4-21.63,4.65-46.51,18.37-71.94,1.08-2,11.64,20.91,76.65,16-2-7.45-5.12-8.76,6.91-7.19,24.41,3.2,65.65,6.31,55.12,1.33C317.36,80,200.49,58.85,201.11,56.31c-15,7.44-26.27,18.53-29.74,33.85,0,0-22.62,66.16-11.18,119.28,11.63,53.95,31.68,77.34,80.21,80.93,4.15.15,8.12.09,12-.11C248.9,288.49,245.44,286.7,242,284.81Z"/><path class="cls-8" d="M232,106.63s3.05-7.17.55-10.46-23.63-3.44-37,.49-16.64,8.17-16.64,8.17,16.78-4.22,34.15-2.26A106,106,0,0,1,232,106.63Z"/><path class="cls-7" d="M284,134c-8.66,0-15.67,7.87-15.67,17.58s7,17.57,15.67,17.57,15.67-7.87,15.67-17.57S292.65,134,284,134Z"/><path class="cls-8" d="M261.23,106.92s-2.76-7.07-.09-10.46,24.06-4.33,37.36-.87S315,103.17,315,103.17s-16.78-3.62-34.43-1A115.15,115.15,0,0,0,261.23,106.92Z"/><path d="M296.74,152.6A12.58,12.58,0,1,1,284.16,140,12.61,12.61,0,0,1,296.74,152.6Z"/><path class="cls-9" d="M292.46,147.25c0,1.55-1.86,2.82-4.15,2.82s-4.15-1.27-4.15-2.82,1.86-2.82,4.15-2.82S292.46,145.69,292.46,147.25Z"/><path class="cls-7" d="M209.6,134c-8.65,0-15.67,7.87-15.67,17.58s7,17.57,15.67,17.57,15.67-7.87,15.67-17.57S218.26,134,209.6,134Z"/><path d="M222.33,152.6A12.59,12.59,0,1,1,209.74,140,12.62,12.62,0,0,1,222.33,152.6Z"/><path class="cls-9" d="M218,147.25c0,1.55-1.86,2.82-4.15,2.82s-4.15-1.27-4.15-2.82,1.86-2.82,4.15-2.82S218,145.69,218,147.25Z"/><path class="cls-10" d="M331.3,405c-7-47.75-51.26-89.17-51.26-89.17L266.2,303.93l-12.3.72-12.3-.72-13.84,11.93S183.47,357.28,176.5,405Z"/><path class="cls-11" d="M225.41,318.72C214.59,328.57,182.29,364,176.49,405h38.44c-10.19-5.91-8.2-10.8-8.2-18.25C206.73,375,225.12,322.07,225.41,318.72Z"/><path class="cls-12" d="M259.42,313.13l3.63-2.82-8-7-8,7,3.63,2.82s-16,66.16-16.69,74.43,21,17.47,21,17.47,21.77-9.21,21-17.47S259.42,313.13,259.42,313.13Z"/><path class="cls-13" d="M258,312.86l3.42-2.75-7.54-6.76-7.53,6.76,3.42,2.75S234.71,377.17,234,385.21s19.87,17,19.87,17,20.56-8.95,19.88-17S258,312.86,258,312.86Z"/><path class="cls-6" d="M221.16,250.21s11.11,31.46,44.34,16.15c16.5-7.59,24.16-30.84,15.76-24C257.45,261.75,221.16,250.21,221.16,250.21Z"/><path class="cls-14" d="M243.05,405c2.79-13.34,4.65-22.32,4.65-22.32l-16.35-71.64-27.87,29.42c-9.36,7.12-29.7,39.3-32.26,56.21-.39,2.57-.72,5.37-1,8.33Z"/><path class="cls-14" d="M335.57,405a101.44,101.44,0,0,0-1.81-12.93c-3.87-16.78-18.88-40.06-27.62-52C286.26,312.94,277.35,310,277.35,310L263.77,383.4s3,9.89,6.2,21.63Z"/><path class="cls-15" d="M232.27,307.35l-12.33,13.46-1.72,6.9-3.34,6.79,32.82,48.21S241.85,342,240,331.88,234.55,310,234.55,310Z"/><polygon class="cls-15" points="277.83 308.34 293.66 322.35 294.46 326.25 300.53 332.7 263.77 383.4 271.36 333.71 272.54 310.27 277.83 308.34"/><path class="cls-16" d="M217.58,235.39A232.48,232.48,0,0,0,247.7,234a246.54,246.54,0,0,0,30.13-6.2s-4.1,43.34-31.15,39.42C226.52,264.29,217.58,235.39,217.58,235.39Z"/><path class="cls-9" d="M244.06,243.79c13.85-1,22.33-6,25.45-10.29.11-.15-.12-3.46,0-3.6A218.16,218.16,0,0,1,247.7,234a220.08,220.08,0,0,1-25.57,1.43C224.82,240.2,234.2,244.5,244.06,243.79Z"/><path class="cls-7" d="M288.92,119c-20.34,0-32.49,9.39-34.36,26.49h-16.7C236,128.41,223.84,119,203.5,119c-22.4,0-34.74,11-34.74,31.11,0,22.29,15.58,40.43,34.74,40.43,17.55,0,32.5-15.63,34.49-35.81h16.44c2,20.18,16.94,35.81,34.49,35.81,19.15,0,34.74-18.14,34.74-40.43C323.66,130.07,311.32,119,288.92,119Zm28.15,31.11c0,18.29-12.63,33.16-28.15,33.16s-28.15-14.87-28.15-33.16c0-15.82,9.47-23.84,28.15-23.84S317.07,134.31,317.07,150.13Zm-85.42,0c0,18.29-12.63,33.16-28.15,33.16s-28.15-14.87-28.15-33.16c0-15.82,9.47-23.84,28.15-23.84S231.65,134.31,231.65,150.13Z"/><path class="cls-17" d="M288.92,115.76c-20.34,0-32.49,9.39-34.36,26.49h-16.7c-1.87-17.1-14-26.49-34.36-26.49-22.4,0-34.74,11-34.74,31.11,0,22.29,15.58,40.42,34.74,40.42,17.55,0,32.5-15.62,34.49-35.8h16.44c2,20.18,16.94,35.8,34.49,35.8,19.15,0,34.74-18.13,34.74-40.42C323.66,126.8,311.32,115.76,288.92,115.76Zm28.15,31.11c0,18.28-12.63,33.16-28.15,33.16s-28.15-14.88-28.15-33.16c0-15.82,9.47-23.85,28.15-23.85S317.07,131.05,317.07,146.87Zm-85.42,0C231.65,165.15,219,180,203.5,180s-28.15-14.88-28.15-33.16c0-15.82,9.47-23.85,28.15-23.85S231.65,131.05,231.65,146.87Z"/><path class="cls-19" d="M395.58,293s-5.92,49.53-34.19,57.94c-26.49,7.89-61.6-17.07-61.6-17.07l6.29,15.44s91.05,37.61,145.53,15c34-14.1,43.68-71.34,43.68-71.34s-27.94-25.74-48.4-28.28C427,262.22,395.58,293,395.58,293Z"/><path class="cls-14" d="M495.29,301s-86.88,42-99.71-8.07c-9.22,51.53-43.1,64.53-105.72,23.87l4.6,9.42,5.33,7.58,3.07,21.75s52,39.32,110.88,37.24C470.3,390.28,495.29,301,495.29,301Z"/><g class="cls-18"><path class="cls-15" d="M409.73,375.47c26.49-9.05,51.46-29.46,77.14-54.66C474,348.09,446.8,389,412.19,390.25c-16.14.6-47.59-7.75-71.86-18.73-8.58-3.89-10.84-8.1-17.62-12.36,7.93,3,2.17-.7,9.48,3.54C357.64,377.44,394.7,380.59,409.73,375.47Z"/></g><path class="cls-20" d="M439.5,371.19c-1.88,1.28-2.36,3.08-1.1,4.05s3.85.77,5.8-.49,2.56-3.16,1.22-4.16S441.42,369.87,439.5,371.19Z"/><path class="cls-20" d="M446.57,360.63c-2.07,1.48-2.62,3.46-1.27,4.45s4.16.67,6.31-.78,2.85-3.56,1.42-4.59S448.69,359.12,446.57,360.63Z"/><path class="cls-20" d="M454.27,348.66c-2.29,1.71-2.93,3.89-1.48,4.91s4.53.53,6.9-1.15,3.2-4,1.65-5.08S456.61,346.9,454.27,348.66Z"/><path class="cls-20" d="M462.74,335c-2.54,2-3.29,4.42-1.73,5.47s4.95.35,7.6-1.62,3.6-4.59,1.92-5.67S465.34,333,462.74,335Z"/><path class="cls-6" d="M470,93.93c-16.24-3.81-30.09,33.76-29.66,50.4s-12.07,32.34-12.07,32.34l54.32,6.8s-20.88-15.25-10.43-35.3S492.82,99.28,470,93.93Z"/><path class="cls-6" d="M485.31,180.29s9.8,6.18,13.38,17c3.64,11,8.38,37.89,2.4,55.74-2.75,8.2-7.76,25.1-17.53,31.2s-27.31,13-55.49,1.48-14.16-22-14.16-22a21,21,0,0,1-6.65-13.67c-.52-8.48,6.67-14.76,6.67-14.76s-8.08-6.05-7.71-16.41S416.17,205,416.17,205s-6.39-5.86-4.26-18,6.14-10.23,21.65-12.59S477.58,174.49,485.31,180.29Z"/><path class="cls-7" d="M482.83,178.85c-5-.37-9.75-1-14.52-1.5s-9.49-.95-14.23-1.23-9.48-.41-14.27-.47-9.62,0-14.6-.25a61.58,61.58,0,0,1,14.32-3.81,72.42,72.42,0,0,1,29.54,1.77A61.21,61.21,0,0,1,482.83,178.85Z"/><path class="cls-7" d="M466.69,149.81a26,26,0,0,1-6.33-.38c-2-.33-3.84-.74-5.69-1.19s-3.7-.94-5.58-1.52a33.25,33.25,0,0,1-5.84-2.34,16,16,0,0,1,6.27-1.72,20.69,20.69,0,0,1,6.37.55,21.68,21.68,0,0,1,5.89,2.41A18.47,18.47,0,0,1,466.69,149.81Z"/><path class="cls-7" d="M473.71,209.48c-4.95-.11-9.76-.61-14.53-1s-9.49-.91-14.22-1.24-9.47-.62-14.26-.91-9.63-.6-14.53-1.33a77,77,0,0,1,14.45-2.74,86.11,86.11,0,0,1,14.72-.19,81.09,81.09,0,0,1,14.55,2.41A72.45,72.45,0,0,1,473.71,209.48Z"/><path class="cls-7" d="M471.45,240c-4.95-.12-9.76-.62-14.53-1.06s-9.49-.9-14.22-1.24-9.47-.61-14.26-.9-9.63-.61-14.53-1.34a77.2,77.2,0,0,1,14.45-2.74,87.16,87.16,0,0,1,14.72-.19A82,82,0,0,1,457.63,235,72.48,72.48,0,0,1,471.45,240Z"/><path class="cls-7" d="M471.47,268.2c-5-.11-9.76-.61-14.53-1.05s-9.49-.91-14.22-1.24-9.47-.62-14.27-.91-9.62-.6-14.52-1.33a76.25,76.25,0,0,1,14.45-2.74,86.11,86.11,0,0,1,14.72-.19,81.09,81.09,0,0,1,14.55,2.41A72.7,72.7,0,0,1,471.47,268.2Z"/><path class="cls-4" d="M237.47,305.58c-1.09-.19-2.18-.42-3.26-.68a51.8,51.8,0,0,0-17.13,18.27c-6.82,12.38-8.25,27.42-4.27,44.69l3.28-2.05c-3.3-14.27-2.53-26.74,2.28-37.05,5.3-11.37,14.61-18.28,21.79-22.05A29.1,29.1,0,0,1,237.47,305.58Z"/><ellipse class="cls-21" cx="214.88" cy="376.9" rx="15.74" ry="17.08" transform="matrix(0.16, -0.99, 0.99, 0.16, -191.73, 528.21)"/><path class="cls-22" d="M227.72,378.77l0,.18a11.62,11.62,0,0,1-8,9.11,14.42,14.42,0,0,1-6.75.47c-7.15-1.16-11.89-7.2-10.87-13.68a11.64,11.64,0,0,1,8-9.1,14.42,14.42,0,0,1,6.75-.48h0C223.91,366.42,228.66,372.33,227.72,378.77Zm-21-3.06c-.79,5.39,2.9,9.82,6.75,10.45a7,7,0,0,0,3.3-.3,9.59,9.59,0,0,0,6.33-7.6c.9-5.38-2.83-10-6.73-10.61h0a7,7,0,0,0-3.3.3,9.62,9.62,0,0,0-6.33,7.61C206.69,375.6,206.69,375.66,206.68,375.71Z"/><path class="cls-4" d="M273.63,306a24.73,24.73,0,0,1-3.58,2.17c-.62.31-1.25.61-1.89.89,10.12,2.89,25.82,11.11,35,34.45l3-1.63C297.8,320.68,284.35,310.61,273.63,306Z"/><path class="cls-23" d="M331.23,365.9c-.16-.14-16-14.13-26-12.57s-20.92,20.83-21,21l-2.09-2.54c.47-.83,11.42-20.29,22.32-22s27.11,12.6,27.79,13.21Z"/><path class="cls-4" d="M334.66,368l-3.26.82c-4.56-16.91-21.9-22.29-22.08-22.35-4.22-1.78-8.36,1.27-8.41,1.31s-15.49,10.85-16.3,29.16l-3.51-1.39c.92-20.6,17-31.86,17.71-32.33.17-.12,5.2-3.87,10.63-1.56C310.1,341.81,329.2,347.75,334.66,368Z"/><path class="cls-24" d="M299.42,399.17l-.8.11c-5.76.78-10.74,1.46-14.18-3.31-2.77-3.83-3.8-10.14-3.34-20.46l3.51,1.39c-.37,8.23.3,13.57,2,15.9,2,2.73,6.13,2.17,10.94,1.51l.8-.1Z"/><path class="cls-24" d="M328.18,394.36a54.68,54.68,0,0,1-5.61,1.18l-.83.14-1.18-4.95.84-.14c5.54-1,9.92-1.74,11.41-5.86,1.12-3.09.66-8.31-1.41-16l3.26-.82c2.48,9.19,2.91,15.47,1.36,19.76C334.6,391.65,331.75,393.34,328.18,394.36Z"/><path class="cls-25" d="M306.12,395.56c.2,2-4.08,4.25-6.15,4.57a3.48,3.48,0,0,1-4.12-3,3.92,3.92,0,0,1,3.37-4.14C301.29,392.69,305.91,393.59,306.12,395.56Z"/><path class="cls-25" d="M313.57,394.39c.21,2,5,2.83,7.2,2.49a4,4,0,0,0,3.54-4.16,3.56,3.56,0,0,0-4.29-3C317.85,390.11,313.37,392.43,313.57,394.39Z"/><polygon class="cls-26" points="225.41 309.29 236.01 300.84 253.89 303.43 242.58 320.3 225.41 309.29"/><path class="cls-15" d="M312.58,207.4a1.26,1.26,0,0,1-.59-.15,1.7,1.7,0,0,1-.67-2.12l25.9-62.37a1.34,1.34,0,0,1,1.86-.76,1.69,1.69,0,0,1,.67,2.12l-25.9,62.37A1.4,1.4,0,0,1,312.58,207.4Z"/><path class="cls-15" d="M180.63,208.88a1.53,1.53,0,0,1-1.42-1.11L157,139.65a1.72,1.72,0,0,1,.9-2.14,1.48,1.48,0,0,1,1.94,1l22.26,68.12a1.72,1.72,0,0,1-.91,2.14A1.29,1.29,0,0,1,180.63,208.88Z"/><polygon class="cls-26" points="282.15 309.44 271.78 300.84 253.89 303.43 265.21 320.3 282.15 309.44"/><path class="cls-4" d="M174.89,194.73s3.24,65.35,7.66,72.87S204.42,294,250.21,294c30.64,0,46.7-10.55,64.31-27.72,5.83-30.29,4.56-71.92,4.56-71.92s-42.1,8.42-61.2-6.89c-13.25-10.61-29.58,4.78-29.58,4.78S205.41,214.4,174.89,194.73Z"/><g class="cls-18"><path class="cls-26" d="M198.19,265.81s23.12,15.25,49.81,14.36c22.25-.73,31.68-5.87,48.91-15.32,0,0-32,4.28-51.57,4.46A303,303,0,0,1,198.19,265.81Z"/></g><g class="cls-18"><path class="cls-26" d="M195.43,232s24.42,27.92,52.59,26.53c23.5-1.16,33.45-13.11,51.65-28,0,0-33.77,6.76-54.45,7A216.94,216.94,0,0,1,195.43,232Z"/></g><g class="cls-18"><path class="cls-26" d="M195.43,209.85s24.42,15.24,52.59,14.36c23.5-.73,33.45-5.88,51.65-15.32,0,0-33.77,4.28-54.45,4.46A337.39,337.39,0,0,1,195.43,209.85Z"/></g><path class="cls-27" d="M157.31,163.71s-6.55-56.57,3.71-85c10.47-29,24.91-29.88,24.91-29.88s13-4.5,19.42,8.69C182.33,64.36,165.35,92.54,157.31,163.71Z"/><path class="cls-27" d="M340.36,163.26s5.58-56.68-5.07-84.91c-10.88-28.81-25.24-29.41-25.24-29.41S297,44.69,290.91,58C313.88,64.41,331.21,92.26,340.36,163.26Z"/><path class="cls-28" d="M349.17,77.13s-20.27,12.2-66.24,4.92C231.8,74,228,68,228,68s14.64,12.11,27.32,14.64-50.78,2-63.62-17.72c0,0-10.12,6.56-20.7,19.84-6.64,8.35-14.78,30.07-15.62,33.18,0,0-1.4-73.36,28.43-81,0,0,3.85-45.54,76.88-35.38S350.21,69.7,349.17,77.13Z"/><path class="cls-27" d="M209.6,39.11a133.38,133.38,0,0,0,41.18,19.45c19.82,5.32,29.19,5.29,46.32,5.22,0,0-29.14-6.12-46.5-11C228.45,46.51,209.6,39.11,209.6,39.11Z"/><path class="cls-27" d="M191.39,42.81c-2.85-4.2-4.44-8.07-6.3-11.69a18.61,18.61,0,0,0-1.32,5.74A42.53,42.53,0,0,0,189,46.63c6.71,10.22,17.27,15.64,31.17,17.16C220.12,63.79,198.65,53.48,191.39,42.81Z"/><path class="cls-27" d="M244.15,32.8s12,10.8,27.32,15.77c12.74,4.14,18.51,3.93,29.06,3.53,0,0-18.57-4.64-29.75-8.47A274.26,274.26,0,0,1,244.15,32.8Z"/><path class="cls-27" d="M337.76,66.26s-7.84-19.83-21.61-30.69c-11.48-9-17.58-9.74-28.73-11,0,0,15.18,6.78,25.17,15.05C325.33,50.2,337.76,66.26,337.76,66.26Z"/></g></g></svg>
